<?xml version="1.0" encoding="UTF-8" standalone="no"?>
<!-- Created with Inkscape (http://www.inkscape.org/) -->

<svg
   xmlns:dc="http://purl.org/dc/elements/1.1/"
   xmlns:cc="http://creativecommons.org/ns#"
   xmlns:rdf="http://www.w3.org/1999/02/22-rdf-syntax-ns#"
   xmlns:svg="http://www.w3.org/2000/svg"
   xmlns="http://www.w3.org/2000/svg"
   xmlns:sodipodi="http://sodipodi.sourceforge.net/DTD/sodipodi-0.dtd"
   xmlns:inkscape="http://www.inkscape.org/namespaces/inkscape"
   width="126"
   height="126"
   viewBox="0 0 126 126"
   id="svg2"
   version="1.1"
   inkscape:version="0.91 r13725"
   sodipodi:docname="dessin.svg"
   style="enable-background:new">
  <defs
     id="defs4">
    <inkscape:perspective
       sodipodi:type="inkscape:persp3d"
       inkscape:vp_x="0 : 526.18109 : 1"
       inkscape:vp_y="0 : 999.99998 : 0"
       inkscape:vp_z="744.09448 : 526.18109 : 1"
       inkscape:persp3d-origin="372.04724 : 350.78739 : 1"
       id="perspective4224" />
    <filter
       inkscape:collect="always"
       style="color-interpolation-filters:sRGB"
       id="filter4250">
      <feBlend
         inkscape:collect="always"
         mode="darken"
         in2="BackgroundImage"
         id="feBlend4252" />
    </filter>
  </defs>
  <sodipodi:namedview
     id="base"
     pagecolor="#ffffff"
     bordercolor="#666666"
     borderopacity="1.0"
     inkscape:pageopacity="1"
     inkscape:pageshadow="2"
     inkscape:zoom="1.979899"
     inkscape:cx="176.95457"
     inkscape:cy="66.902289"
     inkscape:document-units="px"
     inkscape:current-layer="layer2"
     showgrid="false"
     inkscape:window-width="1614"
     inkscape:window-height="925"
     inkscape:window-x="1285"
     inkscape:window-y="0"
     inkscape:window-maximized="0"
     units="px" />
  <metadata
     id="metadata7">
    <rdf:RDF>
      <cc:Work
         rdf:about="">
        <dc:format>image/svg+xml</dc:format>
        <dc:type
           rdf:resource="http://purl.org/dc/dcmitype/StillImage" />
        <dc:title></dc:title>
      </cc:Work>
    </rdf:RDF>
  </metadata>
  <g
     inkscape:groupmode="layer"
     id="layer2"
     inkscape:label="Calque 2"
     style="filter:url(#filter4250)"
     transform="translate(0,-926.36216)">
    <g
       id="g4307"
       transform="matrix(0.15864589,0,0,0.15864589,3.7265095,919.90174)">
      <path
         transform="translate(0,926.36216)"
         inkscape:connector-curvature="0"
         id="path4299"
         d="m 337.05206,-294.76541 0,-141.19652 6.73089,-1.26272 c 3.70199,-0.6945 11.93853,-4.39859 18.30341,-8.23133 l 11.57252,-6.9686 8.36363,6.05859 c 4.60001,3.33222 12.27338,7.04307 17.05194,8.24633 l 8.68829,2.18773 0,141.18152 0,141.18151 -35.35534,0 -35.35534,0 0,-141.19651 z"
         style="opacity:1;fill:#d35f5f;fill-opacity:1" />
      <path
         inkscape:connector-curvature="0"
         id="path4303"
         d="m 306.74749,478.97908 c -64.9356,-22.79468 -112.24356,-72.6948 -129.7324,-136.84086 -6.60322,-24.21946 -6.60322,-68.05446 0,-92.27391 19.01746,-69.75275 74.54679,-123.42773 146.90499,-141.99923 25.66503,-6.5872 72.5434,-6.66767 98.60499,-0.16927 37.03496,9.2346 67.30069,25.87691 94.04957,51.71534 27.1734,26.24849 44.39074,55.96359 53.97434,93.15355 4.7095,18.27559 5.1186,22.90151 4.2885,48.48733 -0.7411,22.84266 -1.9394,31.70018 -6.2281,46.03935 -10.5127,35.14907 -27.00686,61.714 -54.28276,87.42592 -34.92334,32.92087 -84.16922,54.02328 -113.31299,48.55587 -3.92456,-0.73624 -11.75997,-4.51966 -17.41202,-8.40758 l -10.27644,-7.06895 -8.5401,5.80575 c -17.30186,11.76222 -35.44936,13.50597 -58.03758,5.57669 z m 28.71971,-53.45866 c 0.52224,-5.43505 0.55113,-12.59636 0.0642,-15.91403 -0.88162,-6.00681 -0.95117,-6.03594 -16.57339,-6.94029 -19.49241,-1.1284 -27.49833,-5.39822 -34.60662,-18.45682 -2.87292,-5.27783 -9.19888,-13.6467 -14.0577,-18.59746 l -8.83421,-9.0014 6.96695,0 c 5.93554,0 8.76446,1.89856 19.10847,12.82423 13.99019,14.77685 18.30804,17.48034 27.91859,17.48034 15.42816,0 19.35874,-1.95149 23.70068,-11.76716 2.24661,-5.07883 3.68201,-10.28376 3.18977,-11.56649 -0.49223,-1.28276 -5.09641,-2.90813 -10.2315,-3.61197 -13.02295,-1.785 -30.32943,-10.74697 -38.74784,-20.06514 -18.90188,-20.92212 -22.2394,-56.53545 -7.41804,-79.15493 4.45665,-6.80146 5.16936,-9.96805 4.83337,-21.47478 -0.58385,-19.99526 0.88805,-24.08546 8.66742,-24.08546 3.52218,0 13.12934,3.22305 21.34924,7.16233 14.04231,6.7296 15.54015,7.03476 24.79119,5.05076 12.70733,-2.72523 43.0106,-2.71271 55.76699,0.0231 9.32546,1.99996 10.72442,1.73044 22.1758,-4.2722 6.72232,-3.52376 16.31762,-6.86842 21.32288,-7.43258 l 9.10045,-1.02575 1.39049,7.41191 c 0.76477,4.07655 0.96888,12.49579 0.4536,18.70942 -0.83071,10.01736 -0.20393,12.51469 5.53151,22.03933 7.77386,12.90975 9.77056,25.15957 6.96432,42.72596 -4.82617,30.21067 -21.61975,47.46674 -52.28125,53.72114 -6.62955,1.35231 -12.61055,3.01557 -13.29111,3.69613 -0.68056,0.68056 0.62648,4.2946 2.90454,8.03122 3.41524,5.60186 4.14326,10.20038 4.14948,26.20984 0.004,10.67879 0.59896,23.73075 1.32178,29.00435 l 1.31423,9.58835 7.02462,-1.13996 c 3.86356,-0.62696 14.472,-4.82918 23.57432,-9.33826 51.49339,-25.50859 82.1374,-73.80697 82.07085,-129.35283 -0.0311,-25.99785 -3.28968,-39.47378 -15.62191,-64.60586 -7.73843,-15.77033 -12.28788,-22.00845 -25.78454,-35.35534 -23.48902,-23.22837 -47.14772,-36.11505 -78.58274,-42.80332 -21.69763,-4.61649 -58.07253,-2.73552 -79.15172,4.09299 -63.32203,20.5129 -104.12607,75.55812 -104.01585,140.31883 0.0976,57.32085 35.03166,108.06443 90.88387,132.01351 19.30411,8.27749 21.50412,7.87535 22.6588,-4.14166 z"
         style="opacity:1;fill:#d35f5f;fill-opacity:1" />
    </g>
  </g>
</svg>
